<svg width="608" height="200" xmlns="http://www.w3.org/2000/svg"><g fill="#fff"><path d="M114.34 52c-25.405 0-46 21.49-46 48s20.595 48 46 48c11.953-.019 23.43-4.892 32-13.588V148h14v-48c0-26.51-20.595-48-46-48zm0 14a32.583 34 0 0132.584 34 32.583 34 0 01-32.584 34 32.583 34 0 01-32.584-34 32.583 34 0 0132.584-34zM222.34 52a46 48 0 00-46 48 46 48 0 0046 48 46 48 0 0041.328-27H247.92a32.583 34 0 01-25.58 13 32.583 34 0 01-32.584-34 32.583 34 0 0132.584-34 32.583 34 0 0125.615 13h15.686a46 48 0 00-41.301-27zM325.66 52a46 48 0 00-46 48 46 48 0 0046 48 46 48 0 0041.328-27h-15.766a32.583 34 0 01-25.562 13 32.583 34 0 01-31.848-27h77.313a46 48 0 00.535-7 46 48 0 00-46-48zm0 14a32.583 34 0 0131.848 27h-63.721a32.583 34 0 0131.873-27zM557.66 52a46 48 0 00-46 48 46 48 0 0046 48 46 48 0 0041.328-27h-15.766a32.583 34 0 01-25.562 13 32.583 34 0 01-31.848-27h77.313a46 48 0 00.535-7 46 48 0 00-46-48zm0 14a32.583 34 0 0131.848 27h-63.721a32.583 34 0 0131.873-27zM42.336 20c-13.255 0-24 8.059-24 18v14h-14v14h14v82h14V66h24V52h-24V41.5c0-4.142 4.477-7.5 10-7.5h14V20h-14zM461.66 20v32h-14v14h14v82h14V66h24V52h-24V20zM397.66 20v32h-14v14h14v82h14V66h24V52h-24V20z"/></g></svg>